<svg width="48" height="48" viewBox="0 0 48 48" fill="none" xmlns="http://www.w3.org/2000/svg">
  <circle cx="24" cy="24" r="24" fill="#F59E0B"/>
  <path d="M24 12C17.373 12 12 17.373 12 24C12 30.627 17.373 36 24 36C30.627 36 36 30.627 36 24C36 17.373 30.627 12 24 12ZM24 33C19.029 33 15 28.971 15 24C15 19.029 19.029 15 24 15C28.971 15 33 19.029 33 24C33 28.971 28.971 33 24 33Z" fill="white"/>
  <path d="M24 18L26.598 23.199L32 24.0979L28 28.0041L28.9443 33.4021L24 30.8979L19.0557 33.4021L20 28.0041L16 24.0979L21.402 23.199L24 18Z" fill="white"/>
</svg>